<svg version="1.1" id="Layer_1" xmlns="http://www.w3.org/2000/svg" xmlns:xlink="http://www.w3.org/1999/xlink" x="0px" y="0px"
	 width="100%" viewBox="0 0 500 500" enable-background="new 0 0 500 500" xml:space="preserve">
<path fill="#1E1E1E" opacity="1.000000" stroke="none" 
	d="
M277.000000,501.000000 
	C186.000015,501.000000 95.500015,500.975189 5.000193,501.095795 
	C1.576119,501.100342 0.903036,500.423828 0.905301,497.000000 
	C1.013778,333.000092 1.013756,169.000122 0.905337,5.000247 
	C0.903074,1.576946 1.575794,0.903021 4.999876,0.905286 
	C168.999756,1.013775 332.999725,1.013761 496.999634,0.905353 
	C500.422668,0.903091 501.096985,1.575430 501.094727,4.999757 
	C500.986206,168.999634 500.986237,332.999603 501.094604,496.999512 
	C501.096893,500.422272 500.425629,501.102325 497.000275,501.096375 
	C423.833679,500.969360 350.666809,501.000000 277.000000,501.000000 
z"/>
<path fill="#B72648" opacity="1.000000" stroke="none" 
	d="
M323.289459,368.673950 
	C317.596924,361.307343 316.216064,353.470184 318.425262,344.817871 
	C327.981140,307.392639 337.456329,269.946808 346.980835,232.513550 
	C349.245483,223.612991 354.691376,217.496765 363.406616,214.543503 
	C365.893005,213.700958 367.266113,212.756653 367.371124,209.799179 
	C368.663910,173.392624 358.401154,141.239288 331.800385,115.540428 
	C308.004059,92.550980 279.365875,81.805336 246.089096,82.737900 
	C192.371948,84.243309 144.359192,126.388176 135.923828,179.870972 
	C134.352783,189.831802 134.726669,199.798660 134.607178,209.784271 
	C134.575684,212.416824 135.766510,213.480774 138.178543,214.315384 
	C147.219910,217.443787 152.784012,223.894836 155.130203,233.125824 
	C164.645035,270.561646 174.239990,307.977539 183.593185,345.453766 
	C186.859985,358.543213 180.881683,370.724854 169.381226,375.758118 
	C155.454681,381.853149 142.475128,378.727478 134.364761,367.099243 
	C132.947357,365.067047 131.782669,364.307251 129.173538,364.606781 
	C113.083458,366.454041 97.242126,356.664642 92.803802,341.082184 
	C87.059677,320.915161 81.872177,300.563049 77.280289,280.103149 
	C73.864250,264.882446 82.613823,248.823380 97.033607,242.240341 
	C100.302727,240.747910 101.629204,238.948837 101.649757,235.611221 
	C101.720543,224.119476 101.916946,212.628357 101.959656,201.136612 
	C102.221176,130.766708 148.152267,71.587570 216.667267,55.297066 
	C303.713013,34.600578 385.492828,94.073990 398.123047,177.534912 
	C400.532227,193.454926 399.866669,209.444275 400.009399,225.425980 
	C400.034698,228.258606 400.042297,231.091492 400.037842,233.924240 
	C400.031433,238.028137 401.343872,240.626465 405.604279,242.648056 
	C420.204681,249.576096 428.003052,265.694397 424.341614,281.428650 
	C419.776489,301.046448 414.875824,320.597595 409.579041,340.030090 
	C405.249786,355.912842 389.085388,366.443878 372.854675,364.654663 
	C370.682709,364.415253 369.311554,364.533783 367.849976,366.572815 
	C356.692871,382.138062 337.130096,383.121338 323.289459,368.673950 
z"/>
<path fill="#BB274A" opacity="1.000000" stroke="none" 
	d="
M234.522171,347.655792 
	C204.134094,337.383789 188.316376,305.127136 199.061020,275.987030 
	C210.028503,246.242599 242.716064,231.375977 272.155823,243.369049 
	C292.297546,251.574341 309.364014,272.152039 306.138214,302.510254 
	C303.834045,324.194763 285.256073,344.425079 262.552856,348.976990 
	C253.223053,350.847626 244.026871,350.316345 234.522171,347.655792 
z"/>
<path fill="#A62543" opacity="1.000000" stroke="none" 
	d="
M207.420670,434.094666 
	C205.058182,435.703125 205.641022,438.316132 204.981964,440.524048 
	C204.498795,442.142700 205.103271,445.005768 202.909607,444.919708 
	C200.947815,444.842743 201.393997,442.013367 200.983139,440.332214 
	C200.520889,438.440765 200.175735,436.520691 199.521423,433.369476 
	C198.400406,438.157288 199.697983,441.968933 198.380417,445.406097 
	C197.929596,445.398102 197.478790,445.390076 197.027969,445.382050 
	C197.027969,438.105621 197.020462,430.829132 197.039810,423.552765 
	C197.041718,422.837799 197.450699,422.193054 198.219604,422.307251 
	C199.416916,422.485077 199.645828,423.578369 199.838409,424.544159 
	C200.677719,428.753540 201.475266,432.971252 202.498413,438.277283 
	C205.156174,433.781952 204.735855,429.585358 205.856735,425.833221 
	C206.257324,424.492279 205.868515,422.208679 207.824356,422.402985 
	C209.822769,422.601501 208.894226,424.817505 208.994659,426.151215 
	C209.143692,428.130432 209.002167,430.131531 208.929443,432.579193 
	C208.599396,433.552063 208.287872,434.032440 207.420670,434.094666 
z"/>
<path fill="#A22542" opacity="1.000000" stroke="none" 
	d="
M227.936737,430.783661 
	C228.328537,433.310211 230.054337,434.516541 231.296707,436.047150 
	C233.202881,438.395569 234.028625,440.983978 233.033936,443.950378 
	C232.485138,445.587006 231.224121,446.259247 229.559113,446.239960 
	C227.909439,446.220856 226.631958,445.537262 226.056259,443.941376 
	C225.549408,442.536316 225.044495,441.066772 225.653137,439.580078 
	C225.772873,439.287659 226.693375,438.973480 226.853027,439.114044 
	C227.293457,439.501831 227.628418,440.090851 227.820862,440.662323 
	C228.254089,441.949036 227.895309,444.316376 230.158417,443.414917 
	C231.660385,442.816650 231.235107,440.698456 230.635757,439.365784 
	C230.037704,438.036102 229.008072,436.875031 228.050140,435.739166 
	C226.849899,434.316040 225.801559,432.824951 225.456085,430.973267 
	C225.061432,428.858002 225.471268,426.966400 227.455139,425.766174 
	C228.893875,424.895782 230.445786,424.945343 231.593094,426.151154 
	C233.464325,428.117920 233.545685,430.393768 232.573959,432.847076 
	C229.705856,432.224792 232.241760,427.946869 228.840942,428.321808 
	C227.931671,428.422058 227.945480,429.572296 227.936737,430.783661 
z"/>
<path fill="#AB2545" opacity="1.000000" stroke="none" 
	d="
M298.867249,444.508911 
	C297.260590,439.296844 298.024445,434.325500 298.131683,429.399902 
	C298.183441,427.023834 299.548950,425.259430 302.192017,425.310760 
	C304.672058,425.358887 305.667297,427.207550 305.747162,429.319458 
	C305.855255,432.177368 307.414703,436.041809 302.044891,436.013550 
	C300.219452,436.003967 300.033417,437.440308 300.092133,438.832336 
	C300.159637,440.431702 299.582458,442.280884 301.167419,443.434021 
	C302.309875,444.265137 302.916412,443.302216 303.351929,442.341248 
	C303.872131,441.193512 303.346313,439.653381 304.897858,438.525635 
	C306.538696,441.061829 306.076508,443.437408 304.323669,445.244171 
	C302.763824,446.852051 300.707306,446.543915 298.867249,444.508911 
z"/>
<path fill="#AE2545" opacity="1.000000" stroke="none" 
	d="
M282.107269,432.965454 
	C282.568359,432.096832 282.828461,431.466766 282.865051,430.823944 
	C282.941864,429.473877 282.963470,427.753021 281.355835,427.553772 
	C279.594452,427.335510 279.681885,429.225677 279.263092,430.422607 
	C279.109528,430.861511 278.840851,431.260132 278.438995,432.035278 
	C276.330872,430.141144 277.228210,428.326569 278.183655,426.756470 
	C279.031281,425.363556 280.563965,424.976501 282.159637,425.403687 
	C284.033508,425.905304 284.866882,427.335815 284.906982,429.134888 
	C285.007080,433.630829 285.011139,438.129333 285.008942,442.626831 
	C285.008148,444.309082 285.110168,445.773163 282.453888,445.819305 
	C280.079926,445.860535 278.174011,446.039764 277.249298,443.362762 
	C275.741119,438.996765 277.050415,436.015594 282.107269,432.965454 
z"/>
<path fill="#AB2545" opacity="1.000000" stroke="none" 
	d="
M242.953583,432.298523 
	C242.968613,431.345245 242.969543,430.846893 242.996826,430.350006 
	C243.111526,428.261078 243.619049,426.352325 245.796738,425.500763 
	C247.339508,424.897522 248.843552,425.228119 249.814972,426.570679 
	C251.142593,428.405548 251.179993,430.396423 250.392929,432.507538 
	C247.716721,431.767639 249.410934,427.606903 246.725159,428.273407 
	C244.041977,428.939270 245.253632,431.908203 245.095825,433.908386 
	C244.926727,436.052032 245.036942,438.221100 245.088882,440.377533 
	C245.120377,441.684814 245.014450,443.395233 246.676605,443.587860 
	C248.508728,443.800140 248.435593,442.011078 248.669388,440.757629 
	C248.819870,439.950836 248.810913,439.092499 250.076950,438.533691 
	C251.511032,440.707367 251.015518,442.825592 249.808350,444.825378 
	C248.904495,446.322723 247.285767,446.429962 245.804688,445.973511 
	C243.234879,445.181580 243.037384,442.923889 242.985367,440.720184 
	C242.922729,438.066040 242.958466,435.409607 242.953583,432.298523 
z"/>
<path fill="#A22542" opacity="1.000000" stroke="none" 
	d="
M267.018005,425.711548 
	C268.615265,428.545868 268.052765,431.747070 270.042145,434.899414 
	C271.914001,430.644775 270.593231,426.070862 273.222626,422.495667 
	C273.587341,430.393005 272.372864,438.091827 270.317627,445.821289 
	C267.389526,440.985443 268.071930,435.353241 266.168091,429.904022 
	C265.491730,429.119751 265.244141,428.655334 265.151978,427.704773 
	C265.323669,426.446564 265.789551,425.845917 267.018005,425.711548 
z"/>
<path fill="#A22542" opacity="1.000000" stroke="none" 
	d="
M289.687927,440.343811 
	C289.145874,435.276337 287.579742,430.711700 288.205597,424.801666 
	C290.990295,429.006378 289.845917,433.050415 291.586761,436.650146 
	C293.749359,433.333893 292.142975,429.033539 294.751465,425.942932 
	C295.171173,432.294952 293.904724,438.454285 292.806702,444.623627 
	C292.738739,445.005554 292.261169,445.462921 291.871124,445.607880 
	C291.093140,445.897034 290.570618,445.287720 290.418671,444.667999 
	C290.104828,443.388062 289.970062,442.064209 289.687927,440.343811 
z"/>
<path fill="#A62543" opacity="1.000000" stroke="none" 
	d="
M265.600311,427.691467 
	C265.873535,428.279175 265.888123,428.696625 265.898438,429.307800 
	C264.522644,434.856445 264.618103,440.551636 262.045074,445.771149 
	C259.513123,438.180359 258.671387,430.440125 258.590485,422.563080 
	C261.474060,426.774017 260.360657,431.954590 262.779846,436.551514 
	C263.212860,433.953094 263.645874,431.354645 264.172028,428.362213 
	C264.548004,427.636169 264.910583,427.496246 265.600311,427.691467 
z"/>
<path fill="#AB2545" opacity="1.000000" stroke="none" 
	d="
M215.182281,441.297363 
	C215.480820,442.959442 216.004807,444.034851 217.486526,443.784882 
	C219.237183,443.489502 219.234741,441.943481 219.252441,440.651184 
	C219.314850,436.093597 219.276733,431.534607 220.197617,426.968811 
	C221.720901,432.685944 221.670105,438.470337 221.155884,444.224579 
	C220.947281,446.558807 218.474960,445.596558 217.038681,445.948303 
	C215.181625,446.403107 213.410172,445.377319 213.336578,443.543579 
	C213.103088,437.726624 213.250244,431.894379 213.250244,426.068024 
	C213.882675,426.052277 214.515106,426.036499 215.147537,426.020721 
	C215.147537,430.970337 215.147537,435.919922 215.182281,441.297363 
z"/>
<path fill="#B72648" opacity="1.000000" stroke="none" 
	d="
M237.869980,424.510315 
	C240.162582,431.141174 238.622269,438.311768 238.156952,445.462799 
	C236.914719,438.655792 236.222610,431.838959 237.869980,424.510315 
z"/>
<path fill="#AB2545" opacity="1.000000" stroke="none" 
	d="
M207.102371,434.428894 
	C207.586212,433.735840 208.014496,433.500092 208.658661,433.149719 
	C208.874557,437.147461 208.874557,441.259888 208.874557,445.372284 
	C208.430466,445.406616 207.986359,445.440948 207.542267,445.475281 
	C206.391541,442.075531 207.212112,438.415863 207.102371,434.428894 
z"/>
<path fill="#B72648" opacity="1.000000" stroke="none" 
	d="
M266.009033,427.580597 
	C265.505371,427.888794 265.151794,427.915833 264.531677,427.955536 
	C264.031616,426.855042 263.867035,425.725250 264.591858,424.735962 
	C265.172882,423.943024 264.771484,422.094635 266.423523,422.559113 
	C266.931030,422.701752 267.049286,424.228729 267.372009,425.485504 
	C266.985199,426.332611 266.572113,426.816010 266.009033,427.580597 
z"/>
<path fill="#A22542" opacity="1.000000" stroke="none" 
	d="
M238.097382,423.840637 
	C237.857132,424.039917 237.989090,423.997101 238.017670,424.017059 
	C237.817413,423.484711 237.588577,422.932434 237.359726,422.380127 
	C237.641479,422.269501 238.010178,421.986969 238.190002,422.077911 
	C238.986542,422.480743 238.734665,423.073578 238.097382,423.840637 
z"/>
<path fill="#211E1F" opacity="1.000000" stroke="none" 
	d="
M375.515259,137.576538 
	C388.039276,162.024353 391.331451,187.878067 390.412994,214.551712 
	C390.319489,217.267670 389.724060,218.048492 386.878357,216.807175 
	C377.097168,212.540604 377.052521,212.643005 376.983856,201.372513 
	C376.606110,139.378204 336.503723,88.983414 276.987427,75.711632 
	C209.110001,60.575367 139.046509,107.366150 126.914314,175.773605 
	C125.006897,186.528656 124.797333,197.303787 125.075615,208.121399 
	C125.170998,211.829086 124.482086,214.301483 120.363052,214.654739 
	C120.200874,214.668640 120.047623,214.770584 119.884773,214.794708 
	C117.124603,215.203552 114.178062,218.675812 112.294716,217.150787 
	C109.962700,215.262405 111.504463,211.210571 111.409233,208.105942 
	C110.344902,173.408813 119.244980,141.717773 141.187393,114.474083 
	C173.313599,74.586197 215.311493,56.532166 266.190277,61.944885 
	C315.773102,67.219719 351.709045,93.655128 375.515259,137.576538 
z"/>
<path fill="#1F1E1E" opacity="1.000000" stroke="none" 
	d="
M340.124146,298.183289 
	C345.425171,277.303070 350.586792,256.812256 355.868225,236.352356 
	C359.474365,222.382416 374.841339,217.908112 385.738220,227.486618 
	C391.718903,232.743713 391.191315,239.571060 389.603973,246.010056 
	C380.500885,282.936554 371.100677,319.790253 361.676361,356.636688 
	C359.082825,366.776703 351.033722,371.001709 340.404755,368.245544 
	C330.359344,365.640656 325.259918,357.774445 327.644409,347.968384 
	C331.654205,331.478210 335.893219,315.043732 340.124146,298.183289 
z"/>
<path fill="#1F1E1E" opacity="1.000000" stroke="none" 
	d="
M151.915253,259.168640 
	C159.345230,288.607056 166.759872,317.625031 174.008743,346.684296 
	C176.822800,357.965271 172.094452,365.566101 160.935760,368.410736 
	C150.704346,371.018921 142.705505,366.305389 140.098145,356.019073 
	C132.711151,326.876648 125.371475,297.722229 118.002190,268.575348 
	C116.129829,261.169861 114.091202,253.804123 112.349487,246.368484 
	C109.205292,232.945450 114.555359,224.632828 127.286316,222.864700 
	C136.466492,221.589722 143.412079,226.239380 145.917389,235.545807 
	C147.993408,243.257462 149.869186,251.023026 151.915253,259.168640 
z"/>
<path fill="#201E1E" opacity="1.000000" stroke="none" 
	d="
M393.858215,269.821259 
	C395.257843,264.268127 396.767090,259.157562 397.830261,253.955841 
	C398.558990,250.390366 400.205261,250.635513 402.766113,251.922241 
	C411.221405,256.170746 416.971375,267.023132 415.271362,277.183319 
	C412.769348,292.136902 408.041534,306.586731 404.539093,321.319458 
	C403.269073,326.661804 401.987457,332.016815 400.350311,337.253204 
	C397.106842,347.627441 387.784088,354.732117 377.477142,355.246246 
	C373.734344,355.432983 372.299652,354.433380 373.334778,350.418488 
	C380.221863,323.706055 386.978577,296.960052 393.858215,269.821259 
z"/>
<path fill="#1F1E1E" opacity="1.000000" stroke="none" 
	d="
M89.097580,288.825195 
	C88.190979,285.029175 87.238136,281.662262 86.574844,278.239197 
	C84.673958,268.429077 89.937325,257.188293 98.586433,252.206268 
	C101.363609,250.606552 103.160591,250.132263 104.198311,254.285065 
	C112.242386,286.476318 120.459396,318.624573 128.698471,350.766724 
	C129.688690,354.629822 128.041885,355.380524 124.652763,355.256775 
	C113.689400,354.856445 104.169373,347.187408 101.078804,335.595398 
	C96.968498,320.178497 93.135635,304.687683 89.097580,288.825195 
z"/>
<path fill="#EDE6D5" opacity="1.000000" stroke="none" 
	d="
M231.834991,281.007080 
	C231.842346,276.516785 231.823822,272.524658 231.872772,268.533295 
	C231.887527,267.331390 232.162094,266.103210 233.707947,266.073486 
	C235.235153,266.044128 235.600418,267.281647 235.716171,268.453705 
	C235.862747,269.938080 235.826340,271.442871 235.826950,272.938873 
	C235.833115,287.909576 235.833496,302.880280 235.825729,317.850983 
	C235.825027,319.179901 235.857666,320.522339 235.683945,321.833191 
	C235.553619,322.816467 235.116425,323.835358 233.867599,323.823792 
	C232.697327,323.812988 232.071213,322.984863 231.959824,321.919525 
	C231.821991,320.601196 231.840286,319.263580 231.839478,317.934265 
	C231.832001,305.791351 231.835022,293.648468 231.834991,281.007080 
z"/>
<path fill="#EBDED0" opacity="1.000000" stroke="none" 
	d="
M255.009094,299.943604 
	C255.010056,293.975708 255.006577,288.497833 255.014618,283.019928 
	C255.017090,281.341278 254.919189,279.365112 257.157257,279.194122 
	C259.469971,279.017365 259.654236,280.976837 259.661285,282.670502 
	C259.695984,290.970062 259.693634,299.269928 259.652740,307.569458 
	C259.645264,309.083801 259.443298,310.828979 257.480621,310.909912 
	C255.148819,311.005981 255.050064,309.116791 255.025085,307.405334 
	C254.991196,305.081848 255.011841,302.757568 255.009094,299.943604 
z"/>
<path fill="#EBDED0" opacity="1.000000" stroke="none" 
	d="
M227.381287,305.552246 
	C227.376999,306.499695 227.409775,307.002441 227.362350,307.497528 
	C227.224792,308.933838 227.539612,310.891907 225.412949,310.891541 
	C223.329941,310.891144 223.428879,308.941956 223.415253,307.504974 
	C223.350479,300.682159 223.372620,293.858490 223.370728,287.035126 
	C223.370255,285.371155 223.347305,283.704926 223.424530,282.043915 
	C223.488098,280.676483 223.736938,279.124451 225.463867,279.160797 
	C227.211349,279.197632 227.349152,280.771027 227.353577,282.137665 
	C227.378326,289.793091 227.375259,297.448578 227.381287,305.552246 
z"/>
<path fill="#ECE2D2" opacity="1.000000" stroke="none" 
	d="
M273.228577,279.235992 
	C275.894928,279.537994 275.780029,281.344940 275.785797,282.994904 
	C275.813782,290.989960 275.823730,298.985321 275.778290,306.980194 
	C275.769226,308.574402 276.050049,310.814209 273.748505,310.841339 
	C271.283783,310.870422 271.830688,308.553162 271.820251,307.010956 
	C271.766022,299.016174 271.786224,291.020813 271.803619,283.025726 
	C271.806458,281.721649 271.570801,280.317139 273.228577,279.235992 
z"/>
<path fill="#F0F4DF" opacity="1.000000" stroke="none" 
	d="
M239.633972,291.026917 
	C239.643845,287.710968 239.610489,284.888031 239.682373,282.067749 
	C239.716766,280.718018 239.927444,279.244690 241.722076,279.224213 
	C243.382355,279.205261 243.979050,280.379364 243.979813,281.886383 
	C243.984253,290.683868 243.988266,299.481415 243.961288,308.278839 
	C243.956726,309.764374 243.348495,310.953979 241.648468,310.873383 
	C239.832291,310.787262 239.702255,309.268921 239.686798,307.954193 
	C239.622391,302.477020 239.643967,296.998810 239.633972,291.026917 
z"/>
<path fill="#EBDED0" opacity="1.000000" stroke="none" 
	d="
M263.387878,296.783142 
	C263.395996,294.020172 263.372406,291.703796 263.423309,289.389099 
	C263.457977,287.813354 263.789276,286.192505 265.784485,286.311188 
	C267.641113,286.421631 268.037659,287.953888 268.038483,289.570618 
	C268.040192,292.878754 268.031494,296.186981 268.057648,299.494934 
	C268.072754,301.406433 267.966125,303.557373 265.552307,303.525696 
	C263.400665,303.497528 263.409515,301.403900 263.395447,299.711578 
	C263.388580,298.884583 263.390137,298.057495 263.387878,296.783142 
z"/>
<path fill="#EDE6D5" opacity="1.000000" stroke="none" 
	d="
M251.882568,296.802063 
	C251.881729,298.080719 251.892242,298.908722 251.877670,299.736237 
	C251.848755,301.379303 252.084747,303.528229 249.741806,303.418579 
	C247.323532,303.305389 248.018539,301.023529 247.988892,299.505096 
	C247.917801,295.864655 247.984802,292.221527 247.987686,288.579498 
	C247.988571,287.470581 248.438675,286.498566 249.520493,286.348358 
	C250.884445,286.159027 251.719925,287.107788 251.778824,288.408234 
	C251.898544,291.052032 251.857407,293.703064 251.882568,296.802063 
z"/>
<path fill="#EFEFDC" opacity="1.000000" stroke="none" 
	d="
M280.627594,302.650208 
	C280.227753,298.062012 280.086975,293.773254 280.006439,289.483337 
	C279.977264,287.928253 280.232941,286.223114 282.210358,286.298035 
	C283.876099,286.361176 284.007172,287.938812 284.007141,289.314789 
	C284.007080,293.122833 284.072601,296.932617 283.975739,300.738220 
	C283.927704,302.625671 283.295990,304.108093 280.627594,302.650208 
z"/>
<path fill="#EDE6D5" opacity="1.000000" stroke="none" 
	d="
M291.209320,297.265320 
	C291.180603,299.051788 290.941650,300.442535 289.158234,300.339325 
	C287.500977,300.243408 286.976410,298.849121 287.176025,297.487335 
	C287.576233,294.756927 285.617432,289.946594 288.965057,289.786835 
	C293.088837,289.590057 290.383972,294.409210 291.209320,297.265320 
z"/>
<path fill="#ECE2D2" opacity="1.000000" stroke="none" 
	d="
M216.110168,293.344727 
	C216.246277,291.308502 216.133163,289.218140 218.466049,289.433411 
	C220.371216,289.609192 220.176956,291.535339 220.222458,293.014221 
	C220.227539,293.179016 220.259750,293.353027 220.220169,293.507660 
	C219.623474,295.838684 221.790649,300.046082 218.332306,300.169769 
	C214.571335,300.304260 216.703613,296.045197 216.110168,293.344727 
z"/>
<path fill="#261F20" opacity="1.000000" stroke="none" 
	d="
M300.200867,432.638733 
	C300.097961,431.758850 300.024597,431.255920 300.076599,430.766266 
	C300.232239,429.300995 300.282318,427.199371 302.235229,427.606018 
	C304.205536,428.016296 303.891724,430.268219 303.677551,431.856201 
	C303.359863,434.212006 302.066528,434.513275 300.200867,432.638733 
z"/>
<path fill="#261F20" opacity="1.000000" stroke="none" 
	d="
M281.392395,435.583496 
	C282.859497,435.608246 282.976562,436.495514 282.893860,437.267426 
	C282.662445,439.428009 283.929291,441.919281 281.709412,443.650421 
	C281.010742,444.195251 279.897675,444.003082 279.627716,443.156372 
	C278.773285,440.476257 278.143219,437.729584 281.392395,435.583496 
z"/>
</svg>